<mxfile host="app.diagrams.net" modified="2024-05-05T23:43:54.255Z" agent="Mozilla/5.0 (Windows NT 10.0; Win64; x64) AppleWebKit/537.36 (KHTML, like Gecko) Chrome/124.0.0.0 Safari/537.36" etag="hKzh5FnCaBivqRLOM3ea" version="24.3.1" type="github">
  <diagram name="Page-1" id="edf60f1a-56cd-e834-aa8a-f176f3a09ee4">
    <mxGraphModel dx="1260" dy="1422" grid="1" gridSize="10" guides="1" tooltips="1" connect="1" arrows="1" fold="1" page="1" pageScale="1" pageWidth="1100" pageHeight="850" background="none" math="0" shadow="0">
      <root>
        <mxCell id="0" />
        <mxCell id="1" parent="0" />
        <mxCell id="c8SljyaPM4pVhGFqWISj-1" value="&lt;font size=&quot;1&quot;&gt;welcome to treasure island. your mission is to find the treasure.&lt;/font&gt;" style="whiteSpace=wrap;html=1;fontSize=8;fontFamily=Verdana;rounded=0;shadow=1;labelBackgroundColor=none;strokeWidth=1;" parent="1" vertex="1">
          <mxGeometry x="410" y="-830" width="120" height="60" as="geometry" />
        </mxCell>
        <mxCell id="VBdvEuqw4AZl-fAj8CUe-2" value="right&amp;nbsp;" style="rounded=0;whiteSpace=wrap;html=1;" vertex="1" parent="1">
          <mxGeometry x="410" y="-650" width="110" height="40" as="geometry" />
        </mxCell>
        <mxCell id="VBdvEuqw4AZl-fAj8CUe-4" value="" style="endArrow=none;html=1;rounded=0;fontSize=12;startSize=8;endSize=8;curved=1;" edge="1" parent="1">
          <mxGeometry width="50" height="50" relative="1" as="geometry">
            <mxPoint x="520" y="-630" as="sourcePoint" />
            <mxPoint x="660" y="-630" as="targetPoint" />
          </mxGeometry>
        </mxCell>
        <mxCell id="VBdvEuqw4AZl-fAj8CUe-6" value="game over. you fell from the clift.&amp;nbsp;" style="rounded=0;whiteSpace=wrap;html=1;" vertex="1" parent="1">
          <mxGeometry x="650" y="-650" width="110" height="40" as="geometry" />
        </mxCell>
        <mxCell id="VBdvEuqw4AZl-fAj8CUe-7" value="left&amp;nbsp;&lt;div&gt;or anything else&amp;nbsp;&lt;/div&gt;" style="text;html=1;align=center;verticalAlign=middle;resizable=0;points=[];autosize=1;strokeColor=none;fillColor=none;fontSize=16;" vertex="1" parent="1">
          <mxGeometry x="524" y="-679" width="140" height="50" as="geometry" />
        </mxCell>
        <mxCell id="VBdvEuqw4AZl-fAj8CUe-9" value="" style="endArrow=classic;html=1;rounded=0;fontSize=12;curved=1;shape=flexArrow;exitX=0.5;exitY=1;exitDx=0;exitDy=0;" edge="1" parent="1" source="VBdvEuqw4AZl-fAj8CUe-2">
          <mxGeometry width="50" height="50" relative="1" as="geometry">
            <mxPoint x="450" y="-580" as="sourcePoint" />
            <mxPoint x="465" y="-510" as="targetPoint" />
            <Array as="points">
              <mxPoint x="463" y="-560" />
            </Array>
          </mxGeometry>
        </mxCell>
        <mxCell id="VBdvEuqw4AZl-fAj8CUe-10" value="" style="endArrow=classic;html=1;rounded=0;fontSize=12;curved=1;shape=flexArrow;exitX=0.5;exitY=1;exitDx=0;exitDy=0;entryX=0.5;entryY=0;entryDx=0;entryDy=0;" edge="1" parent="1" target="VBdvEuqw4AZl-fAj8CUe-2">
          <mxGeometry width="50" height="50" relative="1" as="geometry">
            <mxPoint x="471" y="-770" as="sourcePoint" />
            <mxPoint x="471" y="-670" as="targetPoint" />
            <Array as="points">
              <mxPoint x="469" y="-720" />
            </Array>
          </mxGeometry>
        </mxCell>
        <mxCell id="VBdvEuqw4AZl-fAj8CUe-27" value="" style="edgeStyle=none;curved=1;rounded=0;orthogonalLoop=1;jettySize=auto;html=1;fontSize=12;startSize=8;endSize=8;" edge="1" parent="1" source="VBdvEuqw4AZl-fAj8CUe-12">
          <mxGeometry relative="1" as="geometry">
            <mxPoint x="455" y="-360" as="targetPoint" />
          </mxGeometry>
        </mxCell>
        <mxCell id="VBdvEuqw4AZl-fAj8CUe-12" value="M" style="rounded=0;whiteSpace=wrap;html=1;" vertex="1" parent="1">
          <mxGeometry x="400" y="-510" width="110" height="40" as="geometry" />
        </mxCell>
        <mxCell id="VBdvEuqw4AZl-fAj8CUe-13" value="E" style="rounded=0;whiteSpace=wrap;html=1;" vertex="1" parent="1">
          <mxGeometry x="560" y="-510" width="110" height="40" as="geometry" />
        </mxCell>
        <mxCell id="VBdvEuqw4AZl-fAj8CUe-14" value="s" style="rounded=0;whiteSpace=wrap;html=1;" vertex="1" parent="1">
          <mxGeometry x="730" y="-510" width="110" height="40" as="geometry" />
        </mxCell>
        <mxCell id="VBdvEuqw4AZl-fAj8CUe-15" value="A" style="rounded=0;whiteSpace=wrap;html=1;" vertex="1" parent="1">
          <mxGeometry x="240" y="-510" width="110" height="40" as="geometry" />
        </mxCell>
        <mxCell id="VBdvEuqw4AZl-fAj8CUe-16" value="G" style="rounded=0;whiteSpace=wrap;html=1;" vertex="1" parent="1">
          <mxGeometry x="70" y="-510" width="110" height="40" as="geometry" />
        </mxCell>
        <mxCell id="VBdvEuqw4AZl-fAj8CUe-18" value="" style="endArrow=none;html=1;rounded=0;fontSize=12;startSize=8;endSize=8;curved=1;exitX=1;exitY=0.75;exitDx=0;exitDy=0;entryX=0;entryY=0.75;entryDx=0;entryDy=0;" edge="1" parent="1">
          <mxGeometry width="50" height="50" relative="1" as="geometry">
            <mxPoint x="510" y="-489" as="sourcePoint" />
            <mxPoint x="560" y="-489" as="targetPoint" />
          </mxGeometry>
        </mxCell>
        <mxCell id="VBdvEuqw4AZl-fAj8CUe-19" value="" style="endArrow=none;html=1;rounded=0;fontSize=12;startSize=8;endSize=8;curved=1;exitX=1;exitY=0.75;exitDx=0;exitDy=0;entryX=0;entryY=0.75;entryDx=0;entryDy=0;" edge="1" parent="1">
          <mxGeometry width="50" height="50" relative="1" as="geometry">
            <mxPoint x="350" y="-490" as="sourcePoint" />
            <mxPoint x="400" y="-490" as="targetPoint" />
          </mxGeometry>
        </mxCell>
        <mxCell id="VBdvEuqw4AZl-fAj8CUe-20" value="" style="endArrow=none;html=1;rounded=0;fontSize=12;startSize=8;endSize=8;curved=1;exitX=1;exitY=0.75;exitDx=0;exitDy=0;entryX=0;entryY=0.75;entryDx=0;entryDy=0;" edge="1" parent="1">
          <mxGeometry width="50" height="50" relative="1" as="geometry">
            <mxPoint x="180" y="-490.5" as="sourcePoint" />
            <mxPoint x="230" y="-490.5" as="targetPoint" />
          </mxGeometry>
        </mxCell>
        <mxCell id="VBdvEuqw4AZl-fAj8CUe-21" value="" style="endArrow=none;html=1;rounded=0;fontSize=12;startSize=8;endSize=8;curved=1;exitX=1;exitY=0.75;exitDx=0;exitDy=0;entryX=0;entryY=0.75;entryDx=0;entryDy=0;" edge="1" parent="1">
          <mxGeometry width="50" height="50" relative="1" as="geometry">
            <mxPoint x="680" y="-490.5" as="sourcePoint" />
            <mxPoint x="730" y="-490.5" as="targetPoint" />
          </mxGeometry>
        </mxCell>
        <mxCell id="VBdvEuqw4AZl-fAj8CUe-22" value="&lt;font style=&quot;font-size: 13px;&quot;&gt;sorry, you chose children&lt;/font&gt;&lt;div style=&quot;font-size: 13px;&quot;&gt;&lt;font style=&quot;font-size: 13px;&quot;&gt;story book. Game over&amp;nbsp;&lt;/font&gt;&lt;/div&gt;" style="text;html=1;align=center;verticalAlign=middle;resizable=0;points=[];autosize=1;strokeColor=none;fillColor=none;fontSize=16;" vertex="1" parent="1">
          <mxGeometry x="45" y="-560" width="170" height="50" as="geometry" />
        </mxCell>
        <mxCell id="VBdvEuqw4AZl-fAj8CUe-23" value="&lt;font style=&quot;font-size: 13px;&quot;&gt;sorry, you chose empty&amp;nbsp;&lt;/font&gt;&lt;div&gt;&lt;span style=&quot;font-size: 13px; background-color: initial;&quot;&gt;book. Game over&amp;nbsp;&lt;/span&gt;&lt;/div&gt;" style="text;html=1;align=center;verticalAlign=middle;resizable=0;points=[];autosize=1;strokeColor=none;fillColor=none;fontSize=16;" vertex="1" parent="1">
          <mxGeometry x="220" y="-560" width="160" height="50" as="geometry" />
        </mxCell>
        <mxCell id="VBdvEuqw4AZl-fAj8CUe-24" value="&lt;font style=&quot;font-size: 13px;&quot;&gt;sorry, you chose&amp;nbsp;&lt;/font&gt;&lt;div&gt;&lt;span style=&quot;background-color: initial; font-size: 13px;&quot;&gt;a book full of numbers&lt;/span&gt;&lt;/div&gt;&lt;div&gt;&lt;span style=&quot;background-color: initial; font-size: 13px;&quot;&gt;. Game over&amp;nbsp;&lt;/span&gt;&lt;/div&gt;" style="text;html=1;align=center;verticalAlign=middle;resizable=0;points=[];autosize=1;strokeColor=none;fillColor=none;fontSize=16;" vertex="1" parent="1">
          <mxGeometry x="540" y="-580" width="150" height="70" as="geometry" />
        </mxCell>
        <mxCell id="VBdvEuqw4AZl-fAj8CUe-25" value="&lt;font style=&quot;font-size: 13px;&quot;&gt;sorry, you chose adult&lt;/font&gt;&lt;div&gt;&lt;span style=&quot;background-color: initial; font-size: 13px;&quot;&gt;comic book. Game over&amp;nbsp;&lt;/span&gt;&lt;/div&gt;" style="text;html=1;align=center;verticalAlign=middle;resizable=0;points=[];autosize=1;strokeColor=none;fillColor=none;fontSize=16;" vertex="1" parent="1">
          <mxGeometry x="690" y="-570" width="160" height="50" as="geometry" />
        </mxCell>
        <mxCell id="VBdvEuqw4AZl-fAj8CUe-31" value="" style="edgeStyle=none;curved=1;rounded=0;orthogonalLoop=1;jettySize=auto;html=1;fontSize=12;startSize=8;endSize=8;" edge="1" parent="1" source="VBdvEuqw4AZl-fAj8CUe-28" target="VBdvEuqw4AZl-fAj8CUe-30">
          <mxGeometry relative="1" as="geometry" />
        </mxCell>
        <mxCell id="VBdvEuqw4AZl-fAj8CUe-33" value="" style="edgeStyle=none;curved=1;rounded=0;orthogonalLoop=1;jettySize=auto;html=1;fontSize=12;startSize=8;endSize=8;" edge="1" parent="1" source="VBdvEuqw4AZl-fAj8CUe-28" target="VBdvEuqw4AZl-fAj8CUe-32">
          <mxGeometry relative="1" as="geometry" />
        </mxCell>
        <mxCell id="VBdvEuqw4AZl-fAj8CUe-36" value="" style="edgeStyle=none;curved=1;rounded=0;orthogonalLoop=1;jettySize=auto;html=1;fontSize=12;startSize=8;endSize=8;" edge="1" parent="1" source="VBdvEuqw4AZl-fAj8CUe-28" target="VBdvEuqw4AZl-fAj8CUe-35">
          <mxGeometry relative="1" as="geometry" />
        </mxCell>
        <mxCell id="VBdvEuqw4AZl-fAj8CUe-28" value="yellow" style="rounded=0;whiteSpace=wrap;html=1;" vertex="1" parent="1">
          <mxGeometry x="400" y="-360" width="110" height="40" as="geometry" />
        </mxCell>
        <mxCell id="VBdvEuqw4AZl-fAj8CUe-29" value="&lt;span style=&quot;font-size: 12px; text-wrap: wrap;&quot;&gt;Congratulations! You got the map&lt;/span&gt;" style="text;html=1;align=center;verticalAlign=middle;resizable=0;points=[];autosize=1;strokeColor=none;fillColor=none;fontSize=16;" vertex="1" parent="1">
          <mxGeometry x="400" y="-470" width="200" height="30" as="geometry" />
        </mxCell>
        <mxCell id="VBdvEuqw4AZl-fAj8CUe-30" value="green" style="whiteSpace=wrap;html=1;rounded=0;" vertex="1" parent="1">
          <mxGeometry x="625" y="-370" width="120" height="60" as="geometry" />
        </mxCell>
        <mxCell id="VBdvEuqw4AZl-fAj8CUe-32" value="blue" style="whiteSpace=wrap;html=1;rounded=0;" vertex="1" parent="1">
          <mxGeometry x="165" y="-370" width="120" height="60" as="geometry" />
        </mxCell>
        <mxCell id="VBdvEuqw4AZl-fAj8CUe-34" value="youve arrive at&amp;nbsp;&lt;div&gt;the island&lt;/div&gt;" style="text;html=1;align=center;verticalAlign=middle;resizable=0;points=[];autosize=1;strokeColor=none;fillColor=none;fontSize=16;" vertex="1" parent="1">
          <mxGeometry x="239" y="-379" width="130" height="50" as="geometry" />
        </mxCell>
        <mxCell id="VBdvEuqw4AZl-fAj8CUe-38" value="" style="edgeStyle=none;curved=1;rounded=0;orthogonalLoop=1;jettySize=auto;html=1;fontSize=12;startSize=8;endSize=8;" edge="1" parent="1" source="VBdvEuqw4AZl-fAj8CUe-35" target="VBdvEuqw4AZl-fAj8CUe-37">
          <mxGeometry relative="1" as="geometry" />
        </mxCell>
        <mxCell id="VBdvEuqw4AZl-fAj8CUe-40" value="" style="edgeStyle=none;curved=1;rounded=0;orthogonalLoop=1;jettySize=auto;html=1;fontSize=12;startSize=8;endSize=8;" edge="1" parent="1" source="VBdvEuqw4AZl-fAj8CUe-35" target="VBdvEuqw4AZl-fAj8CUe-39">
          <mxGeometry relative="1" as="geometry" />
        </mxCell>
        <mxCell id="VBdvEuqw4AZl-fAj8CUe-35" value="purple&amp;nbsp;" style="rounded=0;whiteSpace=wrap;html=1;" vertex="1" parent="1">
          <mxGeometry x="400" y="-200" width="110" height="40" as="geometry" />
        </mxCell>
        <mxCell id="VBdvEuqw4AZl-fAj8CUe-37" value="pink" style="whiteSpace=wrap;html=1;rounded=0;" vertex="1" parent="1">
          <mxGeometry x="625" y="-210" width="120" height="60" as="geometry" />
        </mxCell>
        <mxCell id="VBdvEuqw4AZl-fAj8CUe-39" value="purple&amp;nbsp;" style="rounded=0;whiteSpace=wrap;html=1;" vertex="1" parent="1">
          <mxGeometry x="400" y="-40" width="110" height="40" as="geometry" />
        </mxCell>
        <mxCell id="VBdvEuqw4AZl-fAj8CUe-41" value="congratulations,&lt;div&gt;&amp;nbsp;you win the game&amp;nbsp;&lt;/div&gt;" style="text;html=1;align=center;verticalAlign=middle;resizable=0;points=[];autosize=1;strokeColor=none;fillColor=none;fontSize=16;" vertex="1" parent="1">
          <mxGeometry x="474" y="-49" width="160" height="50" as="geometry" />
        </mxCell>
      </root>
    </mxGraphModel>
  </diagram>
</mxfile>
